<svg width="141" height="44" viewBox="0 0 141 44" fill="none" xmlns="http://www.w3.org/2000/svg">
<path d="M115.009 16.9161C115.01 16.1003 114.849 15.2925 114.538 14.5387C114.226 13.7849 113.768 13.0999 113.192 12.5228C112.615 11.9457 111.931 11.4878 111.177 11.1753C110.424 10.8628 109.616 10.7018 108.8 10.7014H102.594V13.2176H108.8C109.294 13.2041 109.785 13.2897 110.245 13.4693C110.705 13.6489 111.125 13.9188 111.479 14.2632C111.832 14.6076 112.114 15.0194 112.306 15.4744C112.498 15.9293 112.597 16.4181 112.597 16.9119C112.597 17.4057 112.498 17.8946 112.306 18.3495C112.114 18.8044 111.832 19.2162 111.479 19.5606C111.125 19.905 110.705 20.175 110.245 20.3546C109.785 20.5342 109.294 20.6197 108.8 20.6063H105.055V15.596L102.542 18.1176C102.542 18.1755 102.542 20.5291 102.542 20.598C102.542 20.6669 102.542 20.722 102.542 20.7854V22.8276C102.542 22.8882 102.542 22.9516 102.542 23.015C102.542 23.0783 102.542 23.1307 102.542 23.1886V28.006H105.06V23.1169H108.483L112.697 27.9977H116.252L111.374 22.552C112.457 22.0602 113.375 21.2674 114.02 20.2681C114.664 19.2688 115.008 18.1052 115.009 16.9161Z" fill="#FFE700"/>
<path d="M90.1866 15.596C89.1655 15.5959 88.1601 15.8476 87.2595 16.3289C86.3589 16.8102 85.5909 17.5062 85.0235 18.3552C84.4561 19.2042 84.1069 20.1801 84.0068 21.1963C83.9067 22.2125 84.0587 23.2377 84.4495 24.1811C84.8402 25.1246 85.4577 25.957 86.247 26.6048C87.0364 27.2526 87.9733 27.6958 88.9748 27.895C89.9764 28.0941 91.0116 28.0432 91.9887 27.7468C92.9659 27.4503 93.8548 26.9174 94.5768 26.1953L96.3958 28.006V21.8051C96.3958 20.9897 96.2352 20.1823 95.9231 19.429C95.6111 18.6756 95.1537 17.9911 94.5771 17.4146C94.0006 16.838 93.3161 16.3806 92.5628 16.0686C91.8094 15.7566 91.002 15.596 90.1866 15.596ZM93.8796 21.8051V21.8575C93.8727 22.8419 93.4758 23.7835 92.776 24.4759C92.0763 25.1684 91.1305 25.5552 90.1461 25.5518C89.1616 25.5483 88.2186 25.1548 87.5237 24.4574C86.8288 23.7601 86.4386 22.8158 86.4386 21.8313C86.4386 20.8468 86.8288 19.9025 87.5237 19.2051C88.2186 18.5078 89.1616 18.1142 90.1461 18.1108C91.1305 18.1073 92.0763 18.4942 92.776 19.1866C93.4758 19.8791 93.8727 20.8206 93.8796 21.8051Z" fill="#FFE700"/>
<path d="M18.2097 15.596C17.1886 15.5959 16.1832 15.8476 15.2826 16.3289C14.382 16.8102 13.614 17.5062 13.0466 18.3552C12.4793 19.2042 12.13 20.1801 12.0299 21.1963C11.9298 22.2125 12.0818 23.2377 12.4726 24.1811C12.8634 25.1246 13.4808 25.957 14.2701 26.6048C15.0595 27.2526 15.9964 27.6958 16.998 27.895C17.9995 28.0941 19.0347 28.0432 20.0118 27.7468C20.989 27.4503 21.878 26.9174 22.6 26.1953L24.4161 28.006V21.8051C24.4161 20.1588 23.7623 18.5799 22.5985 17.4156C21.4346 16.2512 19.856 15.5967 18.2097 15.596ZM21.9 21.8051V21.8575C21.893 22.7929 21.5157 23.6875 20.8505 24.3454C20.1853 25.0032 19.2866 25.3706 18.3511 25.3671C17.4156 25.3637 16.5196 24.9896 15.8593 24.3269C15.199 23.6642 14.8283 22.7668 14.8283 21.8313C14.8283 20.8958 15.199 19.9984 15.8593 19.3357C16.5196 18.6729 17.4156 18.2989 18.3511 18.2954C19.2866 18.292 20.1853 18.6594 20.8505 19.3172C21.5157 19.975 21.893 20.8696 21.9 21.8051Z" fill="#FFE700"/>
<path d="M18.2097 20.6228C17.9788 20.6228 17.753 20.6911 17.5608 20.8191C17.3685 20.9471 17.2184 21.129 17.1293 21.3421C17.0402 21.5552 17.016 21.7898 17.0599 22.0166C17.1038 22.2433 17.2137 22.452 17.3759 22.6165C17.538 22.7809 17.7452 22.8937 17.9713 22.9408C18.1974 22.9878 18.4323 22.967 18.6466 22.8809C18.8609 22.7947 19.045 22.6472 19.1756 22.4568C19.3063 22.2663 19.3778 22.0415 19.381 21.8106V21.7941C19.381 21.4834 19.2576 21.1855 19.038 20.9659C18.8183 20.7462 18.5204 20.6228 18.2097 20.6228Z" fill="#FFE700"/>
<path d="M65.3722 21.8244V21.8051C65.4074 20.9688 65.2732 20.134 64.9774 19.3509C64.6817 18.5679 64.2306 17.8527 63.6514 17.2485C63.0721 16.6442 62.3766 16.1634 61.6067 15.835C60.8367 15.5065 60.0083 15.3372 59.1713 15.3372C58.3342 15.3372 57.5058 15.5065 56.7359 15.835C55.966 16.1634 55.2705 16.6442 54.6912 17.2485C54.1119 17.8527 53.6609 18.5679 53.3651 19.3509C53.0694 20.134 52.9352 20.9688 52.9704 21.8051V28.0142H55.4894V21.8051C55.5156 20.8428 55.9164 19.9287 56.6063 19.2573C57.2963 18.5859 58.221 18.2103 59.1837 18.2103C60.1464 18.2103 61.0711 18.5859 61.761 19.2573C62.451 19.9287 62.8517 20.8428 62.878 21.8051V28.0142H65.3942V21.8244H65.3722Z" fill="#FFE700"/>
<path d="M31.8599 15.596C30.8776 15.5954 29.9092 15.8279 29.0342 16.2744C28.1592 16.7209 27.4027 17.3687 26.8267 18.1644C26.2507 18.9601 25.8717 19.8812 25.7209 20.8519C25.5701 21.8225 25.6518 22.8151 25.9592 23.7481C26.2666 24.6811 26.7909 25.5278 27.4892 26.2188C28.1875 26.9097 29.0397 27.4251 29.9759 27.7226C30.9121 28.0201 31.9055 28.0913 32.8745 27.9302C33.8435 27.7691 34.7605 27.3805 35.5501 26.7961C35.5398 27.5419 35.3037 28.2671 34.873 28.876C34.4423 29.485 33.8371 29.9491 33.1374 30.2072C32.4376 30.4653 31.676 30.5053 30.953 30.322C30.23 30.1386 29.5796 29.7404 29.0874 29.18L27.2134 30.8336C28.0456 31.7756 29.1444 32.4427 30.3641 32.7463C31.5839 33.05 32.8672 32.9759 34.0439 32.534C35.2206 32.092 36.2354 31.303 36.9537 30.2715C37.672 29.2399 38.06 28.0145 38.0663 26.7575V21.7968C38.0641 20.152 37.4093 18.5752 36.2457 17.4126C35.0821 16.2501 33.5048 15.5967 31.8599 15.596ZM35.5501 21.8051V21.8575C35.5432 22.7929 35.1658 23.6875 34.5007 24.3454C33.8355 25.0032 32.9368 25.3706 32.0013 25.3671C31.0658 25.3637 30.1698 24.9896 29.5095 24.3269C28.8492 23.6642 28.4785 22.7668 28.4785 21.8313C28.4785 20.8958 28.8492 19.9984 29.5095 19.3357C30.1698 18.6729 31.0658 18.2989 32.0013 18.2954C32.9368 18.292 33.8355 18.6594 34.5007 19.3172C35.1658 19.975 35.5432 20.8696 35.5501 21.8051Z" fill="#FFE700"/>
<path d="M45.5073 15.596C44.4842 15.5945 43.4766 15.8459 42.5741 16.3279C41.6715 16.8098 40.9021 17.5072 40.3341 18.3582C39.7661 19.2092 39.4173 20.1874 39.3185 21.2057C39.2197 22.2241 39.3742 23.2511 39.768 24.1953C40.1619 25.1396 40.783 25.9719 41.5761 26.6183C42.3692 27.2646 43.3097 27.705 44.3141 27.9002C45.3184 28.0954 46.3554 28.0394 47.3329 27.7371C48.3103 27.4349 49.198 26.8958 49.9168 26.1677L48.2385 24.2827C47.8116 24.7536 47.2703 25.1062 46.667 25.3062C46.0637 25.5062 45.419 25.5469 44.7953 25.4244C44.1717 25.3018 43.5903 25.0201 43.1076 24.6067C42.6249 24.1932 42.2573 23.662 42.0404 23.0646H51.7082V21.8244C51.7111 20.1764 51.0596 18.5946 49.8969 17.4267C48.7342 16.2588 47.1553 15.6003 45.5073 15.596ZM42.0404 20.5484C42.2986 19.8354 42.7702 19.2192 43.391 18.7837C44.0118 18.3482 44.7518 18.1146 45.5101 18.1146C46.2684 18.1146 47.0084 18.3482 47.6292 18.7837C48.25 19.2192 48.7216 19.8354 48.9798 20.5484H42.0404Z" fill="#FFE700"/>
<path d="M72.7967 25.5008C72.1777 25.5016 71.5684 25.3469 71.0247 25.0509C70.4811 24.755 70.0205 24.3272 69.6852 23.8068C69.3499 23.2865 69.1507 22.6902 69.1059 22.0729C69.061 21.4555 69.172 20.8367 69.4285 20.2734C69.685 19.7101 70.079 19.2202 70.5742 18.8487C71.0693 18.4773 71.6498 18.2362 72.2625 18.1475C72.8751 18.0588 73.5002 18.1255 74.0803 18.3413C74.6605 18.5571 75.1772 18.9151 75.5829 19.3826L78.0357 18.4732C77.3158 17.3371 76.2465 16.4656 74.9886 15.9896C73.7307 15.5136 72.3523 15.4589 71.0606 15.8337C69.769 16.2085 68.634 16.9926 67.8263 18.0679C67.0186 19.1433 66.5819 20.4519 66.5819 21.7968C66.5819 23.1418 67.0186 24.4503 67.8263 25.5257C68.634 26.6011 69.769 27.3852 71.0606 27.76C72.3523 28.1348 73.7307 28.0801 74.9886 27.6041C76.2465 27.1281 77.3158 26.2565 78.0357 25.1205L75.5967 24.2055C75.251 24.6105 74.8217 24.936 74.3384 25.1596C73.8551 25.3831 73.3292 25.4996 72.7967 25.5008Z" fill="#FFE700"/>
<path d="M126.733 18.7598C126.598 18.6495 126.458 18.5448 126.309 18.4429C126.763 18.0499 127.13 17.565 127.383 17.0201C127.637 16.4752 127.772 15.8828 127.78 15.2818C127.77 14.6434 127.617 14.0154 127.333 13.4434C127.05 12.8714 126.642 12.3697 126.141 11.9747C125.908 11.7838 125.659 11.6141 125.397 11.4676L125.361 11.4455L125.126 11.3215L125.091 11.305C124.911 11.217 124.727 11.1388 124.539 11.0707L124.443 11.0239C124.369 10.9963 124.291 10.9715 124.217 10.9495L124.14 10.9274L123.892 10.864H123.842L123.553 10.7896H123.487L123.247 10.7538H123.148C123.073 10.7538 123.002 10.7538 122.927 10.7372H122.831L122.514 10.7014C122.407 10.7014 122.303 10.7014 122.2 10.7014H122.103C122.029 10.7014 121.954 10.7014 121.883 10.718H121.783L121.544 10.7538H121.478L121.177 10.8144H121.128L120.882 10.8778L120.805 10.8998C120.728 10.9219 120.654 10.9467 120.579 10.9743L120.519 10.9935C120.331 11.0617 120.147 11.1399 119.967 11.2278L119.934 11.2443L119.7 11.3684L119.661 11.3904C119.4 11.5383 119.151 11.7079 118.917 11.8975C118.416 12.2925 118.008 12.7942 117.725 13.3662C117.441 13.9383 117.288 14.5662 117.278 15.2046C117.285 15.7944 117.415 16.3762 117.66 16.9129C117.905 17.4495 118.259 17.9293 118.7 18.3216C118.529 18.4373 118.363 18.5558 118.206 18.6826C117.613 19.1523 117.132 19.7483 116.799 20.4271C116.465 21.106 116.287 21.8507 116.277 22.6071C116.289 23.3612 116.468 24.1032 116.801 24.7796C117.135 25.4559 117.615 26.0497 118.206 26.5178H118.223C118.498 26.7441 118.792 26.9461 119.102 27.1213L119.146 27.1461C119.237 27.1985 119.328 27.2453 119.422 27.2922L119.468 27.317C119.684 27.4211 119.904 27.5131 120.13 27.5926L120.199 27.6174L120.474 27.7056L120.565 27.7331L120.841 27.8075L120.907 27.8213C121.023 27.8489 121.144 27.8737 121.263 27.8957H121.334L121.61 27.9371H121.726C121.814 27.9371 121.902 27.9536 122.001 27.9591H122.114C122.238 27.9591 122.362 27.9591 122.489 27.9591C122.616 27.9591 122.737 27.9591 122.861 27.9591H122.974C123.062 27.9591 123.15 27.9591 123.25 27.9371H123.365L123.655 27.8957H123.726C123.848 27.8737 123.966 27.8489 124.082 27.8213L124.148 27.8075L124.424 27.7331L124.515 27.7056L124.79 27.6174L124.859 27.5926C125.085 27.5131 125.305 27.4211 125.521 27.317L125.567 27.2922C125.661 27.2453 125.752 27.1985 125.843 27.1461C125.858 27.1389 125.873 27.1306 125.887 27.1213C126.197 26.9461 126.491 26.7441 126.766 26.5178H126.783C127.375 26.05 127.855 25.4564 128.188 24.78C128.522 24.1035 128.701 23.3613 128.712 22.6071C128.685 21.8597 128.494 21.1274 128.152 20.4623C127.81 19.7973 127.326 19.216 126.733 18.7598ZM120.744 13.9314C120.797 13.879 120.852 13.8294 120.91 13.7798H120.924C120.976 13.7385 121.034 13.6971 121.092 13.6585L121.119 13.6392L121.285 13.5428C121.298 13.5338 121.313 13.5264 121.329 13.5207C121.382 13.4923 121.436 13.4665 121.491 13.4436L121.549 13.4188L121.712 13.3637L121.778 13.3416C121.833 13.3251 121.888 13.314 121.943 13.3003L122.018 13.2837L122.191 13.2589H122.263C122.346 13.2589 122.431 13.2589 122.517 13.2589C122.602 13.2589 122.685 13.2589 122.767 13.2589H122.842C122.899 13.2589 122.957 13.2672 123.015 13.2837L123.09 13.3003C123.145 13.3003 123.2 13.3251 123.252 13.3416L123.321 13.3637L123.484 13.4188L123.539 13.4436C123.596 13.466 123.651 13.4917 123.704 13.5207L123.748 13.5428L123.914 13.6392L123.941 13.6585C123.999 13.6971 124.054 13.7385 124.109 13.7798C124.167 13.8294 124.222 13.879 124.275 13.9314C124.456 14.1034 124.601 14.3107 124.7 14.5405C124.799 14.7703 124.85 15.0178 124.85 15.268C124.85 15.5182 124.799 15.7657 124.7 15.9955C124.601 16.2254 124.456 16.4326 124.275 16.6046C124.222 16.6571 124.167 16.7068 124.109 16.7535L124.09 16.77C124.039 16.8126 123.986 16.8521 123.93 16.8885L123.895 16.9105C123.842 16.9464 123.79 16.9767 123.735 17.007L123.685 17.0318C123.633 17.0594 123.58 17.0842 123.525 17.1062L123.465 17.1338L123.308 17.1889L123.233 17.2109C123.181 17.2275 123.128 17.2385 123.073 17.2523L122.993 17.2688L122.864 17.2881H122.809C122.685 17.2881 122.561 17.2881 122.437 17.2881C122.313 17.2881 122.208 17.2881 122.095 17.2881L121.993 17.2716L121.916 17.255C121.861 17.2413 121.808 17.2302 121.756 17.2137L121.682 17.1917L121.524 17.1365L121.461 17.109C121.41 17.0869 121.357 17.0621 121.304 17.0346L121.254 17.0098C121.199 16.9794 121.147 16.9491 121.094 16.9133L121.059 16.8913C121.004 16.8554 120.948 16.8141 120.896 16.7728L120.88 16.7562C120.821 16.7102 120.766 16.6605 120.714 16.6074C120.533 16.4354 120.388 16.2281 120.289 15.9983C120.19 15.7685 120.139 15.5209 120.139 15.2708C120.139 15.0206 120.19 14.773 120.289 14.5432C120.388 14.3134 120.533 14.1062 120.714 13.9341L120.744 13.9314ZM124.956 24.5528C124.881 24.6272 124.804 24.6961 124.724 24.7622L124.697 24.7843C124.625 24.8421 124.548 24.9 124.471 24.9524L124.421 24.9827C124.349 25.0295 124.275 25.0764 124.198 25.1177L124.126 25.1536C124.054 25.1921 123.98 25.2252 123.906 25.2583L123.817 25.2941C123.746 25.3217 123.671 25.3492 123.597 25.3713L123.495 25.4044C123.421 25.4264 123.346 25.4429 123.269 25.4595C123.192 25.476 123.197 25.4788 123.159 25.4843C123.079 25.5005 122.998 25.5124 122.916 25.5201H122.811C122.696 25.5201 122.577 25.5366 122.459 25.5366C122.34 25.5366 122.219 25.5366 122.103 25.5201H121.998C121.917 25.5124 121.836 25.5005 121.756 25.4843L121.646 25.4595C121.569 25.4429 121.494 25.4264 121.422 25.4044C121.351 25.3823 121.354 25.3823 121.318 25.3713C121.282 25.3603 121.169 25.3217 121.097 25.2941L121.009 25.2583C120.935 25.2252 120.86 25.1921 120.789 25.1536L120.72 25.1177C120.643 25.0764 120.565 25.0295 120.494 24.9827L120.444 24.9524C120.367 24.9 120.29 24.8421 120.218 24.7843L120.191 24.7622C120.111 24.6961 120.033 24.6272 119.959 24.5528C119.704 24.3112 119.502 24.0204 119.363 23.698C119.225 23.3755 119.153 23.0283 119.153 22.6774C119.153 22.3264 119.225 21.9792 119.363 21.6567C119.502 21.3343 119.704 21.0435 119.959 20.8019C120.032 20.7278 120.11 20.6579 120.191 20.5925L120.21 20.5759C120.284 20.5153 120.364 20.4602 120.444 20.4051L120.485 20.3803C120.56 20.3301 120.637 20.2841 120.717 20.2425L120.778 20.2094C120.852 20.1708 120.929 20.1378 121.006 20.1047C121.034 20.1047 121.059 20.0799 121.086 20.0716C121.161 20.0413 121.238 20.0165 121.315 19.9917L121.409 19.9614C121.486 19.9393 121.56 19.92 121.637 19.9035L121.745 19.8815C121.825 19.8655 121.906 19.8535 121.987 19.8456H122.186C122.291 19.8456 122.395 19.8456 122.503 19.8456H122.9C122.981 19.8533 123.062 19.8653 123.142 19.8815L123.25 19.9035C123.327 19.92 123.404 19.9393 123.478 19.9614L123.572 19.9917C123.649 20.0165 123.726 20.0413 123.801 20.0716C123.828 20.0716 123.853 20.0937 123.881 20.1047C123.958 20.1378 124.035 20.1708 124.109 20.2094L124.17 20.2425C124.25 20.2838 124.327 20.3307 124.404 20.3803L124.443 20.4051C124.523 20.4602 124.603 20.5153 124.677 20.5759L124.697 20.5925C124.778 20.6579 124.857 20.7278 124.931 20.8019C125.185 21.0437 125.387 21.3346 125.526 21.657C125.664 21.9794 125.735 22.3265 125.735 22.6774C125.735 23.0282 125.664 23.3753 125.526 23.6977C125.387 24.0201 125.185 24.311 124.931 24.5528H124.956Z" fill="#FFE700"/>
<path d="M80.2294 20.5897C80.2294 20.6531 80.2294 20.7137 80.2294 20.7771V22.8276C80.2294 22.8882 80.2294 22.9516 80.2294 23.015C80.2294 23.0783 80.2294 23.1307 80.2294 23.1886V28.006H82.7456V15.596L80.2349 18.1176C80.2322 18.1755 80.2294 20.5291 80.2294 20.5897Z" fill="#FFE700"/>
<path d="M43.6609 14.1684L45.5625 13.4684L47.4613 14.1684L48.5637 14.5708L49.0873 13.1459L45.8656 11.9719L45.7526 11.9251C45.6905 11.9011 45.627 11.8809 45.5625 11.8644C45.4979 11.8809 45.4344 11.9011 45.3723 11.9251L45.2593 11.9719L42.0404 13.1459L42.564 14.5708L43.6609 14.1684Z" fill="#FFE700"/>
</svg>
