<svg width="40" height="40" viewBox="0 0 40 40" fill="none" xmlns="http://www.w3.org/2000/svg">
<mask id="mask0_12746_1105" style="mask-type:alpha" maskUnits="userSpaceOnUse" x="2" y="2" width="36" height="36">
<path d="M18.75 21.475L15.5125 18.2375L13.75 20L18.75 25L27.5 16.25L25.7375 14.4875L18.75 21.475Z" fill="black"/>
<path d="M37.5 18.75H34.9365C34.6371 15.2204 33.099 11.9105 30.5942 9.40578C28.0895 6.90104 24.7796 5.36292 21.25 5.0635V2.5H18.75V5.0635C15.2204 5.36292 11.9105 6.90104 9.40578 9.40578C6.90104 11.9105 5.36292 15.2204 5.0635 18.75H2.5V21.25H5.0635C5.36292 24.7796 6.90104 28.0895 9.40578 30.5942C11.9105 33.099 15.2204 34.6371 18.75 34.9365V37.5H21.25V34.9365C24.7796 34.6371 28.0895 33.099 30.5942 30.5942C33.099 28.0895 34.6371 24.7796 34.9365 21.25H37.5V18.75ZM21.25 32.4365V28.75H18.75V32.4365C15.8828 32.1442 13.2041 30.8717 11.1662 28.8338C9.12825 26.7959 7.85577 24.1172 7.5635 21.25H11.25V18.75H7.5635C7.85577 15.8828 9.12825 13.2041 11.1662 11.1662C13.2041 9.12825 15.8828 7.85577 18.75 7.5635V11.25H21.25V7.5635C24.1172 7.85577 26.7959 9.12825 28.8338 11.1662C30.8717 13.2041 32.1442 15.8828 32.4365 18.75H28.75V21.25H32.4362C32.144 24.1172 30.8716 26.7958 28.8337 28.8338C26.7958 30.8717 24.1172 32.1442 21.25 32.4365Z" fill="black"/>
</mask>
<g mask="url(#mask0_12746_1105)">
<path d="M0 0H40V40H0V0Z" fill="#EDECE6"/>
</g>
</svg>
