<svg width="40" height="40" viewBox="0 0 40 40" fill="none" xmlns="http://www.w3.org/2000/svg">
<mask id="mask0_12746_90" style="mask-type:alpha" maskUnits="userSpaceOnUse" x="2" y="2" width="36" height="36">
<path d="M33.75 30C33.1929 30.0028 32.6437 30.1313 32.1433 30.376L26.7676 25H22.5V27.5H25.7324L30.3756 32.1435C30.1314 32.644 30.003 33.1931 30 33.75C30 34.4917 30.2199 35.2167 30.632 35.8334C31.044 36.4501 31.6297 36.9307 32.3149 37.2145C33.0002 37.4984 33.7542 37.5726 34.4816 37.4279C35.209 37.2832 35.8772 36.9261 36.4017 36.4016C36.9261 35.8772 37.2833 35.209 37.4279 34.4816C37.5726 33.7542 37.4984 33.0002 37.2146 32.3149C36.9307 31.6297 36.4501 31.044 35.8334 30.632C35.2167 30.2199 34.4917 30 33.75 30ZM33.75 35C33.5028 35 33.2611 34.9267 33.0555 34.7893C32.85 34.652 32.6898 34.4568 32.5952 34.2284C32.5005 33.9999 32.4758 33.7486 32.524 33.5061C32.5723 33.2637 32.6913 33.0409 32.8661 32.8661C33.0409 32.6913 33.2637 32.5723 33.5061 32.524C33.7486 32.4758 33.9999 32.5005 34.2284 32.5952C34.4568 32.6898 34.652 32.85 34.7893 33.0555C34.9267 33.2611 35 33.5028 35 33.75C34.9997 34.0814 34.8679 34.3992 34.6336 34.6336C34.3992 34.8679 34.0814 34.9997 33.75 35Z" fill="black"/>
<path d="M33.75 16.25C32.977 16.2523 32.2237 16.4939 31.5935 16.9415C30.9633 17.3892 30.4871 18.0209 30.2304 18.75H22.5V21.25H30.2304C30.4607 21.8963 30.8643 22.4669 31.397 22.8994C31.9296 23.332 32.571 23.6097 33.2508 23.7024C33.9307 23.7951 34.623 23.6992 35.252 23.4251C35.881 23.1509 36.4226 22.7092 36.8176 22.1481C37.2125 21.587 37.4457 20.9282 37.4915 20.2435C37.5374 19.5589 37.3942 18.8749 37.0776 18.2661C36.761 17.6574 36.2831 17.1473 35.6963 16.7918C35.1094 16.4362 34.4362 16.2488 33.75 16.25ZM33.75 21.25C33.5028 21.25 33.2611 21.1767 33.0555 21.0393C32.85 20.902 32.6898 20.7068 32.5952 20.4784C32.5005 20.2499 32.4758 19.9986 32.524 19.7561C32.5723 19.5137 32.6913 19.2909 32.8661 19.1161C33.0409 18.9413 33.2637 18.8222 33.5061 18.774C33.7486 18.7258 33.9999 18.7505 34.2284 18.8452C34.4568 18.9398 34.652 19.1 34.7893 19.3055C34.9267 19.5111 35 19.7528 35 20C34.9997 20.3314 34.8679 20.6492 34.6336 20.8836C34.3992 21.1179 34.0814 21.2497 33.75 21.25Z" fill="black"/>
<path d="M33.75 2.5C32.7558 2.50109 31.8026 2.89653 31.0996 3.59956C30.3965 4.30258 30.0011 5.25577 30 6.25C30.0043 6.84883 30.1536 7.43771 30.4351 7.96625L25.7446 12.5H22.5V15H26.7554L32.254 9.6845C32.7648 9.90716 33.3188 10.0131 33.8758 9.9947C34.4327 9.97627 34.9785 9.8339 35.4735 9.57796C35.9684 9.32202 36.4001 8.95894 36.7371 8.51515C37.0741 8.07136 37.3079 7.55802 37.4215 7.01249C37.535 6.46697 37.5256 5.90298 37.3937 5.36157C37.2619 4.82016 37.011 4.31495 36.6594 3.88272C36.3077 3.45048 35.8641 3.10209 35.3608 2.8629C34.8575 2.62371 34.3072 2.49974 33.75 2.5ZM33.75 7.5C33.5028 7.5 33.2611 7.42669 33.0555 7.28934C32.85 7.15199 32.6898 6.95676 32.5952 6.72835C32.5005 6.49995 32.4758 6.24861 32.524 6.00614C32.5723 5.76366 32.6913 5.54093 32.8661 5.36612C33.0409 5.1913 33.2637 5.07225 33.5061 5.02402C33.7486 4.97579 33.9999 5.00054 34.2284 5.09515C34.4568 5.18976 34.652 5.34998 34.7893 5.55554C34.9267 5.7611 35 6.00277 35 6.25C34.9997 6.58143 34.8679 6.8992 34.6336 7.13355C34.3992 7.36791 34.0814 7.4997 33.75 7.5Z" fill="black"/>
<path d="M22.5 7.5H25V5H22.5C21.7876 5.00239 21.0841 5.15792 20.4371 5.45604C19.79 5.75417 19.2147 6.18791 18.75 6.72788C18.2853 6.18791 17.71 5.75417 17.0629 5.45604C16.4159 5.15792 15.7124 5.00239 15 5H13.75C10.7673 5.00331 7.90777 6.18964 5.7987 8.2987C3.68964 10.4078 2.50331 13.2673 2.5 16.25V23.75C2.50331 26.7327 3.68964 29.5922 5.7987 31.7013C7.90777 33.8104 10.7673 34.9967 13.75 35H15C15.7124 34.9976 16.4159 34.8421 17.0629 34.544C17.71 34.2458 18.2853 33.8121 18.75 33.2721C19.2147 33.8121 19.79 34.2458 20.4371 34.544C21.0841 34.8421 21.7876 34.9976 22.5 35H25V32.5H22.5C21.8372 32.4992 21.2018 32.2356 20.7331 31.7669C20.2644 31.2982 20.0008 30.6628 20 30V10C20.0008 9.33719 20.2644 8.70175 20.7331 8.23307C21.2018 7.7644 21.8372 7.50076 22.5 7.5ZM15 32.5H13.75C11.648 32.4963 9.61753 31.7366 8.0294 30.3596C6.44126 28.9826 5.40149 27.0802 5.1 25H7.5V22.5H5V17.5H8.75C9.74423 17.4989 10.6974 17.1035 11.4004 16.4004C12.1035 15.6974 12.4989 14.7442 12.5 13.75V11.25H10V13.75C9.9997 14.0814 9.86791 14.3992 9.63355 14.6336C9.3992 14.8679 9.08143 14.9997 8.75 15H5.1C5.40149 12.9198 6.44126 11.0174 8.0294 9.6404C9.61753 8.26341 11.648 7.50368 13.75 7.5H15C15.6628 7.50076 16.2983 7.7644 16.7669 8.23307C17.2356 8.70175 17.4992 9.33719 17.5 10V15H15V17.5H17.5V22.5H15C14.0058 22.5011 13.0526 22.8965 12.3496 23.5996C11.6465 24.3026 11.2511 25.2558 11.25 26.25V28.75H13.75V26.25C13.7503 25.9186 13.8821 25.6008 14.1164 25.3664C14.3508 25.1321 14.6686 25.0003 15 25H17.5V30C17.4992 30.6628 17.2356 31.2982 16.7669 31.7669C16.2983 32.2356 15.6628 32.4992 15 32.5Z" fill="black"/>
</mask>
<g mask="url(#mask0_12746_90)">
<path d="M0 0H40V40H0V0Z" fill="#EDECE6"/>
</g>
</svg>
