<svg width="40" height="40" viewBox="0 0 40 40" fill="none" xmlns="http://www.w3.org/2000/svg">
<mask id="mask0_12746_1150" style="mask-type:alpha" maskUnits="userSpaceOnUse" x="3" y="3" width="34" height="34">
<path d="M18.75 7.5H35V10H18.75V7.5Z" fill="black"/>
<path d="M18.75 30H35V32.5H18.75V30Z" fill="black"/>
<path d="M5 18.75H21.25V21.25H5V18.75Z" fill="black"/>
<path d="M8.75 13.75C7.7611 13.75 6.7944 13.4568 5.97215 12.9073C5.14991 12.3579 4.50904 11.577 4.1306 10.6634C3.75217 9.74979 3.65315 8.74446 3.84608 7.77455C4.039 6.80465 4.51521 5.91373 5.21447 5.21447C5.91373 4.51521 6.80465 4.039 7.77455 3.84608C8.74446 3.65315 9.74979 3.75217 10.6634 4.1306C11.577 4.50904 12.3579 5.14991 12.9073 5.97215C13.4568 6.7944 13.75 7.7611 13.75 8.75C13.75 10.0761 13.2232 11.3479 12.2855 12.2855C11.3479 13.2232 10.0761 13.75 8.75 13.75ZM8.75 6.25C8.25555 6.25 7.7722 6.39662 7.36108 6.67133C6.94995 6.94603 6.62952 7.33648 6.4403 7.79329C6.25108 8.25011 6.20158 8.75278 6.29804 9.23773C6.3945 9.72268 6.6326 10.1681 6.98224 10.5178C7.33187 10.8674 7.77732 11.1055 8.26228 11.202C8.74723 11.2984 9.2499 11.2489 9.70671 11.0597C10.1635 10.8705 10.554 10.5501 10.8287 10.1389C11.1034 9.72781 11.25 9.24446 11.25 8.75C11.25 8.08696 10.9866 7.45108 10.5178 6.98224C10.0489 6.51339 9.41304 6.25 8.75 6.25Z" fill="black"/>
<path d="M8.75 36.25C7.7611 36.25 6.7944 35.9568 5.97215 35.4073C5.14991 34.8579 4.50904 34.077 4.1306 33.1634C3.75217 32.2498 3.65315 31.2445 3.84608 30.2745C4.039 29.3046 4.51521 28.4137 5.21447 27.7145C5.91373 27.0152 6.80465 26.539 7.77455 26.3461C8.74446 26.1531 9.74979 26.2522 10.6634 26.6306C11.577 27.009 12.3579 27.6499 12.9073 28.4722C13.4568 29.2944 13.75 30.2611 13.75 31.25C13.75 32.5761 13.2232 33.8479 12.2855 34.7855C11.3479 35.7232 10.0761 36.25 8.75 36.25ZM8.75 28.75C8.25555 28.75 7.7722 28.8966 7.36108 29.1713C6.94995 29.446 6.62952 29.8365 6.4403 30.2933C6.25108 30.7501 6.20158 31.2528 6.29804 31.7377C6.3945 32.2227 6.6326 32.6681 6.98224 33.0178C7.33187 33.3674 7.77732 33.6055 8.26228 33.702C8.74723 33.7984 9.2499 33.7489 9.70671 33.5597C10.1635 33.3705 10.554 33.0501 10.8287 32.6389C11.1034 32.2278 11.25 31.7445 11.25 31.25C11.25 30.587 10.9866 29.9511 10.5178 29.4822C10.0489 29.0134 9.41304 28.75 8.75 28.75Z" fill="black"/>
<path d="M31.25 25C30.2611 25 29.2944 24.7068 28.4722 24.1573C27.6499 23.6079 27.009 22.827 26.6306 21.9134C26.2522 20.9998 26.1531 19.9945 26.3461 19.0245C26.539 18.0546 27.0152 17.1637 27.7145 16.4645C28.4137 15.7652 29.3046 15.289 30.2745 15.0961C31.2445 14.9031 32.2498 15.0022 33.1634 15.3806C34.077 15.759 34.8579 16.3999 35.4073 17.2221C35.9568 18.0444 36.25 19.0111 36.25 20C36.25 21.3261 35.7232 22.5979 34.7855 23.5355C33.8479 24.4732 32.5761 25 31.25 25ZM31.25 17.5C30.7555 17.5 30.2722 17.6466 29.8611 17.9213C29.45 18.196 29.1295 18.5865 28.9403 19.0433C28.7511 19.5001 28.7016 20.0028 28.798 20.4877C28.8945 20.9727 29.1326 21.4181 29.4822 21.7678C29.8319 22.1174 30.2773 22.3555 30.7623 22.452C31.2472 22.5484 31.7499 22.4989 32.2067 22.3097C32.6635 22.1205 33.054 21.8 33.3287 21.3889C33.6034 20.9778 33.75 20.4945 33.75 20C33.75 19.337 33.4866 18.7011 33.0178 18.2322C32.5489 17.7634 31.913 17.5 31.25 17.5Z" fill="black"/>
</mask>
<g mask="url(#mask0_12746_1150)">
<path d="M0 0H40V40H0V0Z" fill="#EDECE6"/>
</g>
</svg>
